<svg width="162" height="48" viewBox="0 0 162 48" fill="none" xmlns="http://www.w3.org/2000/svg">
<path d="M156 0H6C2.68629 0 0 2.68629 0 6V42C0 45.3137 2.68629 48 6 48H156C159.314 48 162 45.3137 162 42V6C162 2.68629 159.314 0 156 0Z" fill="black"/>
<path d="M156 0.96C157.337 0.96 158.619 1.491 159.564 2.43618C160.509 3.38137 161.04 4.66331 161.04 6V42C161.04 43.3367 160.509 44.6186 159.564 45.5638C158.619 46.509 157.337 47.04 156 47.04H6C4.66331 47.04 3.38137 46.509 2.43618 45.5638C1.491 44.6186 0.96 43.3367 0.96 42V6C0.96 4.66331 1.491 3.38137 2.43618 2.43618C3.38137 1.491 4.66331 0.96 6 0.96H156ZM156 0H6C4.4087 0 2.88258 0.632141 1.75736 1.75736C0.632141 2.88258 0 4.4087 0 6V42C0 43.5913 0.632141 45.1174 1.75736 46.2426C2.88258 47.3679 4.4087 48 6 48H156C157.591 48 159.117 47.3679 160.243 46.2426C161.368 45.1174 162 43.5913 162 42V6C162 4.4087 161.368 2.88258 160.243 1.75736C159.117 0.632141 157.591 0 156 0Z" fill="#A6A6A6"/>
<path d="M81.7678 26.0996C80.7602 26.1043 79.7765 26.4074 78.941 26.9707C78.1055 27.534 77.4555 28.3321 77.0732 29.2644C76.6909 30.1968 76.5933 31.2214 76.7928 32.2091C76.9923 33.1969 77.4799 34.1034 78.1941 34.8142C78.9083 35.5251 79.817 36.0084 80.8057 36.2032C81.7943 36.3981 82.8185 36.2957 83.749 35.909C84.6795 35.5223 85.4746 34.8686 86.034 34.0305C86.5933 33.1923 86.8918 32.2072 86.8918 31.1996C86.9016 30.5251 86.7756 29.8555 86.5212 29.2308C86.2669 28.606 85.8894 28.0388 85.4113 27.563C84.9332 27.0871 84.3643 26.7123 83.7383 26.4609C83.1124 26.2095 82.4422 26.0866 81.7678 26.0996ZM81.7678 34.2956C81.1481 34.3389 80.5297 34.1948 79.993 33.882C79.4563 33.5692 79.026 33.1022 78.7582 32.5417C78.4905 31.9811 78.3975 31.353 78.4914 30.7389C78.5854 30.1249 78.8619 29.5533 79.285 29.0984C79.7081 28.6436 80.2583 28.3265 80.864 28.1885C81.4696 28.0505 82.1028 28.0978 82.6812 28.3245C83.2597 28.5511 83.7565 28.9465 84.1072 29.4592C84.458 29.9719 84.6463 30.5783 84.6478 31.1996C84.6672 31.5932 84.6075 31.9867 84.4723 32.3569C84.3371 32.727 84.1292 33.0664 83.8608 33.355C83.5924 33.6435 83.2689 33.8754 82.9094 34.0369C82.55 34.1985 82.1618 34.2864 81.7678 34.2956ZM70.5958 26.0996C69.5877 26.1019 68.6028 26.4031 67.7657 26.9649C66.9286 27.5267 66.2768 28.3241 65.8926 29.2562C65.5084 30.1883 65.4091 31.2133 65.6073 32.2019C65.8054 33.1904 66.2921 34.098 67.0058 34.81C67.7195 35.5221 68.6283 36.0066 69.6173 36.2024C70.6062 36.3982 71.6311 36.2965 72.5623 35.9102C73.4935 35.5238 74.2893 34.8701 74.8491 34.0317C75.409 33.1933 75.7078 32.2077 75.7078 31.1996C75.7176 30.5251 75.5916 29.8555 75.3372 29.2308C75.0829 28.606 74.7054 28.0388 74.2273 27.563C73.7492 27.0871 73.1803 26.7123 72.5543 26.4609C71.9284 26.2095 71.2583 26.0866 70.5838 26.0996H70.5958ZM70.5958 34.2956C69.9758 34.3413 69.3564 34.1994 68.8182 33.8882C68.28 33.577 67.8479 33.111 67.5783 32.5509C67.3086 31.9907 67.2138 31.3623 67.3063 30.7476C67.3987 30.1328 67.6741 29.5601 68.0966 29.104C68.5191 28.6479 69.0691 28.3296 69.675 28.1905C70.281 28.0514 70.9147 28.0979 71.4939 28.324C72.073 28.5501 72.5706 28.9453 72.922 29.4582C73.2733 29.9711 73.4621 30.5779 73.4638 31.1996C73.4832 31.5932 73.4235 31.9867 73.2883 32.3569C73.1531 32.727 72.9452 33.0664 72.6768 33.355C72.4084 33.6435 72.0849 33.8754 71.7254 34.0369C71.366 34.1985 70.9778 34.2864 70.5838 34.2956H70.5958ZM57.2878 27.6716V29.8316H62.4718C62.3905 30.8489 61.9676 31.8089 61.2718 32.5556C60.7532 33.0838 60.1297 33.4977 59.4415 33.7705C58.7533 34.0433 58.0156 34.169 57.2758 34.1396C55.7482 34.1396 54.2831 33.5327 53.2029 32.4525C52.1227 31.3723 51.5158 29.9072 51.5158 28.3796C51.5158 26.8519 52.1227 25.3868 53.2029 24.3066C54.2831 23.2264 55.7482 22.6196 57.2758 22.6196C58.7372 22.5957 60.1483 23.1524 61.1998 24.1676L62.7238 22.6436C62.014 21.9248 61.1671 21.3558 60.2334 20.9704C59.2996 20.5849 58.298 20.3908 57.2878 20.3996C56.221 20.358 55.1568 20.5323 54.159 20.9119C53.1611 21.2915 52.2502 21.8687 51.4807 22.6088C50.7113 23.3489 50.0991 24.2367 49.681 25.219C49.2629 26.2013 49.0474 27.2579 49.0474 28.3256C49.0474 29.3932 49.2629 30.4498 49.681 31.4321C50.0991 32.4144 50.7113 33.3023 51.4807 34.0423C52.2502 34.7824 53.1611 35.3596 54.159 35.7392C55.1568 36.1188 56.221 36.2931 57.2878 36.2516C58.315 36.298 59.3401 36.1239 60.2944 35.7409C61.2486 35.358 62.1097 34.7751 62.8198 34.0316C64.077 32.6503 64.7483 30.8345 64.6918 28.9676C64.6957 28.5127 64.6555 28.0586 64.5718 27.6116L57.2878 27.6716ZM111.66 29.3516C111.347 28.4308 110.762 27.6269 109.982 27.0462C109.202 26.4655 108.264 26.1353 107.292 26.0996C106.635 26.0983 105.986 26.2316 105.383 26.4914C104.78 26.7512 104.237 27.1318 103.787 27.6098C103.337 28.0878 102.99 28.653 102.767 29.2704C102.545 29.8879 102.451 30.5444 102.492 31.1996C102.477 31.8703 102.598 32.537 102.847 33.16C103.096 33.783 103.468 34.3494 103.94 34.8254C104.413 35.3015 104.977 35.6774 105.598 35.9306C106.219 36.1839 106.885 36.3094 107.556 36.2996C108.395 36.3041 109.223 36.1004 109.964 35.7067C110.705 35.3129 111.337 34.7415 111.804 34.0436L110.064 32.8436C109.804 33.2765 109.436 33.6346 108.997 33.8828C108.557 34.131 108.061 34.2608 107.556 34.2596C107.036 34.2794 106.522 34.1423 106.081 33.8663C105.641 33.5902 105.293 33.1878 105.084 32.7116L111.912 29.8916L111.66 29.3516ZM104.7 31.0556C104.676 30.6844 104.725 30.3121 104.847 29.9605C104.968 29.6089 105.158 29.285 105.407 29.0079C105.655 28.7307 105.956 28.5059 106.292 28.3465C106.628 28.1871 106.992 28.0963 107.364 28.0796C107.751 28.0541 108.137 28.1428 108.474 28.3348C108.811 28.5268 109.084 28.8136 109.26 29.1596L104.7 31.0556ZM99.1558 35.9996H101.4V20.9996H99.1558V35.9996ZM95.4838 27.2396H95.3998C95.0616 26.8614 94.6473 26.5591 94.1841 26.3523C93.7209 26.1455 93.2191 26.0389 92.7118 26.0396C91.4005 26.1031 90.1638 26.6689 89.2582 27.6195C88.3526 28.57 87.8474 29.8326 87.8474 31.1456C87.8474 32.4585 88.3526 33.7211 89.2582 34.6717C90.1638 35.6223 91.4005 36.188 92.7118 36.2516C93.2203 36.2601 93.7246 36.1571 94.189 35.9498C94.6534 35.7424 95.0667 35.4358 95.3998 35.0516H95.4718V35.7836C95.4718 37.7396 94.4278 38.7836 92.7478 38.7836C92.1883 38.7705 91.6453 38.5912 91.188 38.2685C90.7307 37.9458 90.3797 37.4943 90.1798 36.9716L88.2238 37.7876C88.592 38.6832 89.2194 39.4484 90.0254 39.9851C90.8315 40.5217 91.7795 40.8053 92.7478 40.7996C95.3758 40.7996 97.5478 39.2516 97.5478 35.4836V26.3996H95.4838V27.2396ZM92.9158 34.2956C92.1418 34.2273 91.4213 33.8716 90.8965 33.2986C90.3718 32.7255 90.0807 31.9766 90.0807 31.1996C90.0807 30.4225 90.3718 29.6736 90.8965 29.1005C91.4213 28.5275 92.1418 28.1718 92.9158 28.1036C93.2996 28.1232 93.6756 28.2196 94.0216 28.3868C94.3676 28.554 94.6766 28.7888 94.9304 29.0773C95.1843 29.3659 95.3778 29.7023 95.4997 30.0667C95.6215 30.4312 95.6692 30.8164 95.6398 31.1996C95.6726 31.5844 95.6269 31.9719 95.5056 32.3385C95.3843 32.7052 95.1899 33.0435 94.9342 33.3329C94.6784 33.6223 94.3666 33.8568 94.0177 34.0223C93.6687 34.1878 93.2898 34.2807 92.9038 34.2956H92.9158ZM122.172 20.9996H116.808V35.9996H119.052V30.3116H122.184C122.823 30.3575 123.466 30.2712 124.07 30.058C124.675 29.8449 125.229 29.5094 125.699 29.0725C126.168 28.6357 126.542 28.1068 126.798 27.519C127.054 26.9311 127.186 26.2967 127.186 25.6556C127.186 25.0144 127.054 24.38 126.798 23.7922C126.542 23.2043 126.168 22.6754 125.699 22.2386C125.229 21.8017 124.675 21.4663 124.07 21.2531C123.466 21.0399 122.823 20.9536 122.184 20.9996H122.172ZM122.172 28.1996H119.04V23.0876H122.22C122.902 23.0876 123.557 23.3587 124.04 23.8415C124.523 24.3242 124.794 24.9789 124.794 25.6616C124.794 26.3442 124.523 26.9989 124.04 27.4816C123.557 27.9644 122.902 28.2356 122.22 28.2356L122.172 28.1996ZM136.008 26.0396C135.191 25.9907 134.377 26.1816 133.668 26.5888C132.958 26.996 132.382 27.6017 132.012 28.3316L134.004 29.1596C134.2 28.7976 134.498 28.5005 134.86 28.3045C135.222 28.1085 135.633 28.022 136.044 28.0556C136.329 28.0223 136.617 28.0461 136.893 28.1255C137.168 28.205 137.425 28.3386 137.649 28.5184C137.872 28.6982 138.058 28.9208 138.194 29.173C138.331 29.4253 138.415 29.7022 138.444 29.9876V30.1436C137.723 29.762 136.919 29.5641 136.104 29.5676C133.956 29.5676 131.784 30.7676 131.784 32.9396C131.805 33.4027 131.919 33.8569 132.119 34.2752C132.318 34.6936 132.6 35.0677 132.947 35.3753C133.294 35.683 133.699 35.918 134.138 36.0664C134.577 36.2149 135.041 36.2737 135.504 36.2396C136.069 36.2801 136.635 36.1679 137.141 35.9145C137.648 35.6611 138.077 35.276 138.384 34.7996H138.456V35.9996H140.616V30.2276C140.616 27.5996 138.624 26.0756 136.068 26.0756L136.008 26.0396ZM135.732 34.2596C135 34.2596 133.98 33.8876 133.98 32.9876C133.98 31.7876 135.252 31.3916 136.38 31.3916C137.093 31.374 137.797 31.548 138.42 31.8956C138.345 32.5452 138.037 33.1459 137.555 33.5869C137.072 34.028 136.446 34.2796 135.792 34.2956L135.732 34.2596ZM148.488 26.3996L145.92 32.9036H145.848L143.184 26.3996H140.784L144.78 35.4956L142.5 40.5476H144.84L150.984 26.3996H148.488ZM128.316 35.9996H130.56V20.9996H128.316V35.9996Z" fill="white"/>
<path d="M56.8289 12.3628C56.8493 12.803 56.78 13.2427 56.6253 13.6553C56.4706 14.0678 56.2337 14.4446 55.9289 14.7628C55.5886 15.1164 55.1776 15.3942 54.7227 15.5782C54.2678 15.7622 53.7793 15.8483 53.2889 15.8308C52.5449 15.825 51.8191 15.5998 51.2025 15.1833C50.586 14.7668 50.1061 14.1776 49.8229 13.4895C49.5397 12.8015 49.4659 12.0452 49.6107 11.3154C49.7555 10.5855 50.1125 9.91468 50.6369 9.38685C50.9815 9.03499 51.3947 8.75759 51.8509 8.57183C52.307 8.38606 52.7965 8.29588 53.2889 8.30685C53.7962 8.30516 54.2985 8.40725 54.7649 8.60685C55.1991 8.78199 55.5857 9.05752 55.8929 9.41085L55.2569 10.0468C55.0174 9.76196 54.7149 9.53668 54.3733 9.38881C54.0318 9.24094 53.6605 9.17454 53.2889 9.19485C52.914 9.19301 52.5427 9.26688 52.1971 9.41203C51.8515 9.55719 51.5388 9.77064 51.2777 10.0396C51.0166 10.3085 50.8125 10.6274 50.6777 10.9771C50.5428 11.3269 50.4799 11.7002 50.4929 12.0748C50.485 12.6342 50.643 13.1834 50.9469 13.6531C51.2508 14.1227 51.6869 14.4919 52.2004 14.714C52.7138 14.936 53.2816 15.0011 53.8319 14.9008C54.3823 14.8006 54.8907 14.5397 55.2929 14.1508C55.6621 13.7507 55.8751 13.2311 55.8929 12.6868H53.2889V11.8228H56.7809C56.8129 12.0011 56.8289 12.1818 56.8289 12.3628ZM62.3249 9.36285H59.0849V11.6428H62.0369V12.5068H59.0849V14.7868H62.3249V15.6748H58.1249V8.47485H62.3249V9.36285ZM66.2609 15.6748H65.3369V9.36285H63.3209V8.47485H68.3249V9.36285H66.2609V15.6748ZM71.8529 15.6748V8.47485H72.7769V15.6748H71.8529ZM76.8809 15.6748H75.9569V9.36285H73.9409V8.47485H78.8849V9.36285H76.8809V15.6748ZM88.2569 14.7388C87.5554 15.4365 86.6062 15.8281 85.6169 15.8281C84.6275 15.8281 83.6784 15.4365 82.9769 14.7388C82.295 14.0171 81.9151 13.0618 81.9151 12.0688C81.9151 11.0759 82.295 10.1206 82.9769 9.39885C83.3227 9.05054 83.7339 8.7741 84.187 8.58545C84.6401 8.39681 85.1261 8.29969 85.6169 8.29969C86.1077 8.29969 86.5936 8.39681 87.0467 8.58545C87.4998 8.7741 87.9111 9.05054 88.2569 9.39885C88.9415 10.1192 89.3232 11.0751 89.3232 12.0688C89.3232 13.0626 88.9415 14.0185 88.2569 14.7388ZM83.6609 14.1388C84.1804 14.6562 84.8837 14.9467 85.6169 14.9467C86.3501 14.9467 87.0534 14.6562 87.5729 14.1388C88.0856 13.5737 88.3696 12.8379 88.3696 12.0748C88.3696 11.3118 88.0856 10.576 87.5729 10.0108C87.0534 9.4935 86.3501 9.20304 85.6169 9.20304C84.8837 9.20304 84.1804 9.4935 83.6609 10.0108C83.1482 10.576 82.8642 11.3118 82.8642 12.0748C82.8642 12.8379 83.1482 13.5737 83.6609 14.1388ZM90.6209 15.6748V8.47485H91.7489L95.2529 14.0788V8.47485H96.1769V15.6748H95.2169L91.5569 9.80685V15.6748H90.6209Z" fill="white"/>
<path fill-rule="evenodd" clip-rule="evenodd" d="M85.6169 8.41969C85.1419 8.41969 84.6716 8.51368 84.2332 8.69624C83.7951 8.8786 83.3975 9.14576 83.0631 9.48234C82.4029 10.1817 82.0351 11.1071 82.0351 12.0688C82.0351 13.0305 82.4028 13.9558 83.0628 14.6551C83.7417 15.3295 84.6599 15.7081 85.6169 15.7081C86.574 15.7081 87.4921 15.3295 88.1711 14.6549C88.8337 13.957 89.2032 13.0313 89.2032 12.0688C89.2032 11.1063 88.8336 10.1805 88.1708 9.48249C87.8364 9.14584 87.4387 8.87863 87.0006 8.69624C86.5621 8.51367 86.0918 8.41969 85.6169 8.41969ZM84.1409 8.47467C84.6086 8.27994 85.1103 8.17969 85.6169 8.17969C86.1235 8.17969 86.6251 8.27994 87.0928 8.47467C87.5605 8.6694 87.9851 8.95476 88.342 9.31431L88.3439 9.31617C89.0497 10.0589 89.4432 11.0443 89.4432 12.0688C89.4432 13.0934 89.0496 14.0788 88.3439 14.8215L88.3415 14.824C87.6175 15.5439 86.6379 15.9481 85.6169 15.9481C84.5958 15.9481 83.6163 15.5439 82.8923 14.8239L82.8896 14.8213C82.1867 14.0772 81.7951 13.0924 81.7951 12.0688C81.7951 11.0453 82.1867 10.0605 82.8896 9.31644L82.8917 9.31428C83.2486 8.95474 83.6732 8.6694 84.1409 8.47467ZM53.2862 8.42682C52.8102 8.41621 52.3371 8.50339 51.8961 8.68297C51.4552 8.86254 51.0558 9.13069 50.7226 9.47082L50.722 9.47143C50.2143 9.9825 49.8686 10.6321 49.7284 11.3387C49.5882 12.0454 49.6597 12.7777 49.9339 13.4439C50.2081 14.1101 50.6727 14.6806 51.2697 15.0838C51.8667 15.4871 52.5694 15.7052 53.2898 15.7109L53.2931 15.7109C53.7667 15.7277 54.2384 15.6447 54.6777 15.467C55.1169 15.2893 55.5137 15.0211 55.8423 14.6797C56.1358 14.3733 56.364 14.0104 56.5129 13.6131C56.6619 13.2158 56.7286 12.7923 56.709 12.3684L56.8289 12.3628L56.7089 12.3628C56.7089 12.2222 56.6989 12.0819 56.6788 11.9428H53.4089V12.5668H56.0169L56.0128 12.6908C55.9941 13.2638 55.7699 13.8109 55.3811 14.2322L55.3764 14.2373C54.9572 14.6425 54.4271 14.9144 53.8534 15.0189C53.2797 15.1234 52.688 15.0556 52.1528 14.8241C51.6176 14.5926 51.1629 14.2078 50.8461 13.7182C50.5299 13.2295 50.3652 12.6581 50.3728 12.0761C50.3598 11.6863 50.4254 11.2979 50.5657 10.934C50.7064 10.5692 50.9193 10.2365 51.1916 9.95599C51.464 9.67546 51.7902 9.45281 52.1506 9.3014C52.51 9.15045 52.8961 9.0734 53.2859 9.07484C53.6749 9.05413 54.0635 9.1239 54.421 9.27869C54.7396 9.41663 55.0259 9.61873 55.2621 9.87188L55.7273 9.40669C55.4456 9.10732 55.102 8.87224 54.72 8.71814L54.7177 8.7172C54.2663 8.52404 53.7802 8.42521 53.2893 8.42685L53.2862 8.42682ZM56.9489 12.3601C56.9696 12.8155 56.8978 13.2705 56.7377 13.6974C56.5772 14.1252 56.3316 14.5159 56.0155 14.8459C55.6635 15.2115 55.2382 15.4991 54.7677 15.6894C54.2977 15.8796 53.7929 15.9686 53.2863 15.9508C52.5192 15.9445 51.771 15.7121 51.1354 15.2827C50.4993 14.853 50.0041 14.2451 49.7119 13.5352C49.4198 12.8253 49.3436 12.045 49.493 11.292C49.6424 10.5392 50.0106 9.84712 50.5514 9.30257C50.9075 8.93913 51.3344 8.65259 51.8056 8.46069C52.2765 8.26893 52.7817 8.17573 53.29 8.18685C53.8127 8.18531 54.3303 8.29052 54.8109 8.49603C55.2623 8.67829 55.6641 8.96479 55.9834 9.33211L56.0569 9.41657L55.2492 10.2242L55.165 10.1241C54.9375 9.85343 54.6501 9.63941 54.3257 9.49894C54.0012 9.35846 53.6485 9.29538 53.2954 9.31467L53.2883 9.31506C52.9296 9.3133 52.5743 9.38377 52.2436 9.52267C51.9129 9.66157 51.6137 9.86582 51.3638 10.1232C51.114 10.3805 50.9187 10.6857 50.7896 11.0203C50.6606 11.355 50.6004 11.7122 50.6128 12.0707L50.613 12.0765C50.6055 12.6122 50.7566 13.1381 51.0476 13.5879C51.3386 14.0376 51.7563 14.3912 52.248 14.6038C52.7397 14.8165 53.2834 14.8787 53.8104 14.7828C54.3364 14.687 54.8222 14.438 55.207 14.067C55.5272 13.7188 55.7228 13.2757 55.7653 12.8068H53.1689V11.7028H56.8812L56.899 11.8016C56.9321 11.986 56.9488 12.1728 56.9489 12.3601ZM58.0049 8.35485H62.4449V9.48285H59.2049V11.5228H62.1569V12.6268H59.2049V14.6668H62.4449V15.7948H58.0049V8.35485ZM58.2449 8.59485V15.5548H62.2049V14.9068H58.9649V12.3868H61.9169V11.7628H58.9649V9.24285H62.2049V8.59485H58.2449ZM63.2009 8.35485H68.4449V9.48285H66.3809V15.7948H65.2169V9.48285H63.2009V8.35485ZM63.4409 8.59485V9.24285H65.4569V15.5548H66.1409V9.24285H68.2049V8.59485H63.4409ZM71.7329 8.35485H72.8969V15.7948H71.7329V8.35485ZM71.9729 8.59485V15.5548H72.6569V8.59485H71.9729ZM73.8209 8.35485H79.0049V9.48285H77.0009V15.7948H75.8369V9.48285H73.8209V8.35485ZM74.0609 8.59485V9.24285H76.0769V15.5548H76.7609V9.24285H78.7649V8.59485H74.0609ZM90.5009 8.35485H91.8154L95.1329 13.6606V8.35485H96.2969V15.7948H95.1503L91.6769 10.226V15.7948H90.5009V8.35485ZM90.7409 8.59485V15.5548H91.4369V9.38771L95.2835 15.5548H96.0569V8.59485H95.3729V14.4971L91.6824 8.59485H90.7409ZM83.5762 9.92582C84.1182 9.38608 84.852 9.08304 85.6169 9.08304C86.3818 9.08304 87.1155 9.38608 87.6576 9.92582L87.6619 9.93012C88.1946 10.5174 88.4896 11.282 88.4896 12.0748C88.4896 12.8677 88.1945 13.6322 87.6618 14.2195L87.6577 14.224C87.1157 14.7637 86.3818 15.0667 85.6169 15.0667C84.852 15.0667 84.1182 14.7636 83.5762 14.2239L83.6609 14.1388L83.572 14.2195C83.0393 13.6322 82.7442 12.8677 82.7442 12.0748C82.7442 11.282 83.0393 10.5175 83.572 9.93022L83.5762 9.92582ZM83.7477 14.056C84.2445 14.5496 84.9165 14.8267 85.6169 14.8267C86.3173 14.8267 86.9892 14.5496 87.486 14.056C87.9774 13.5132 88.2495 12.8071 88.2495 12.0748C88.2495 11.3426 87.9774 10.6365 87.486 10.0937C86.9892 9.60012 86.3173 9.32304 85.6169 9.32304C84.9165 9.32304 84.2445 9.60012 83.7477 10.0937C83.2563 10.6365 82.9842 11.3426 82.9842 12.0748C82.9842 12.8071 83.2563 13.5132 83.7477 14.056Z" fill="white"/>
<path d="M12.528 9.04787C12.1369 9.5172 11.9394 10.118 11.976 10.7279V37.2719C11.9394 37.8817 12.1369 38.4825 12.528 38.9519L12.612 39.0359L27.48 24.1799V23.8319L12.612 8.96387L12.528 9.04787Z" fill="url(#paint0_linear_391_5637)"/>
<path d="M32.4 29.1353L27.48 24.1793V23.8313L32.4 18.8633L32.508 18.9233L38.4 22.2713C40.08 23.2193 40.08 24.7793 38.4 25.7393L32.532 29.0753L32.4 29.1353Z" fill="url(#paint1_linear_391_5637)"/>
<path d="M32.5438 29.063L27.4798 23.999L12.5278 38.951C12.8703 39.252 13.3071 39.424 13.7628 39.4371C14.2186 39.4503 14.6646 39.3038 15.0238 39.023L32.5558 29.063" fill="url(#paint2_linear_391_5637)"/>
<path d="M32.5436 18.9355L15.0116 8.97547C14.6524 8.69469 14.2064 8.54821 13.7506 8.56136C13.2949 8.57451 12.8581 8.74645 12.5156 9.04747L27.4796 23.9995L32.5436 18.9355Z" fill="url(#paint3_linear_391_5637)"/>
<path opacity="0.2" d="M32.3998 28.9551L15.0118 38.8551C14.6654 39.1141 14.2444 39.2541 13.8118 39.2541C13.3793 39.2541 12.9583 39.1141 12.6118 38.8551L12.5278 38.9391L12.6118 39.0231C12.9575 39.284 13.3788 39.4251 13.8118 39.4251C14.2449 39.4251 14.6662 39.284 15.0118 39.0231L32.5438 29.0631L32.3998 28.9551Z" fill="black"/>
<path opacity="0.12" d="M12.528 38.783C12.1369 38.3137 11.9394 37.7129 11.976 37.103V37.283C11.9394 37.8929 12.1369 38.4937 12.528 38.963L12.612 38.879L12.528 38.783ZM38.4 25.559L32.4 28.955L32.508 29.063L38.4 25.727C38.7343 25.57 39.0213 25.3275 39.232 25.0241C39.4427 24.7207 39.5696 24.3671 39.6 23.999C39.5325 24.3335 39.3892 24.648 39.1812 24.9184C38.9732 25.1889 38.7059 25.408 38.4 25.559Z" fill="black"/>
<path opacity="0.25" d="M15.0119 9.14295L38.3999 22.439C38.7058 22.59 38.9731 22.8091 39.1811 23.0795C39.3891 23.35 39.5324 23.6645 39.5999 23.999C39.5695 23.6308 39.4425 23.2772 39.2319 22.9738C39.0212 22.6705 38.7342 22.428 38.3999 22.2709L15.0119 8.97495C13.3319 8.02695 11.9639 8.81895 11.9639 10.7389V10.9189C11.9999 8.98695 13.3439 8.19495 15.0119 9.14295Z" fill="white"/>
<defs>
<linearGradient id="paint0_linear_391_5637" x1="26.16" y1="10.4519" x2="6.02398" y2="30.5879" gradientUnits="userSpaceOnUse">
<stop stop-color="#00A0FF"/>
<stop offset="0.01" stop-color="#00A1FF"/>
<stop offset="0.26" stop-color="#00BEFF"/>
<stop offset="0.51" stop-color="#00D2FF"/>
<stop offset="0.76" stop-color="#00DFFF"/>
<stop offset="1" stop-color="#00E3FF"/>
</linearGradient>
<linearGradient id="paint1_linear_391_5637" x1="40.596" y1="23.9993" x2="11.568" y2="23.9993" gradientUnits="userSpaceOnUse">
<stop stop-color="#FFE000"/>
<stop offset="0.41" stop-color="#FFBD00"/>
<stop offset="0.78" stop-color="#FFA500"/>
<stop offset="1" stop-color="#FF9C00"/>
</linearGradient>
<linearGradient id="paint2_linear_391_5637" x1="29.7958" y1="26.759" x2="2.48384" y2="54.059" gradientUnits="userSpaceOnUse">
<stop stop-color="#FF3A44"/>
<stop offset="1" stop-color="#C31162"/>
</linearGradient>
<linearGradient id="paint3_linear_391_5637" x1="8.75962" y1="0.215473" x2="20.9516" y2="12.4075" gradientUnits="userSpaceOnUse">
<stop stop-color="#32A071"/>
<stop offset="0.07" stop-color="#2DA771"/>
<stop offset="0.48" stop-color="#15CF74"/>
<stop offset="0.8" stop-color="#06E775"/>
<stop offset="1" stop-color="#00F076"/>
</linearGradient>
</defs>
</svg>
